<svg width="400" height="72" viewBox="0 0 400 72" fill="none" xmlns="http://www.w3.org/2000/svg">
<rect width="400" height="72" fill="white"/>
<path fill-rule="evenodd" clip-rule="evenodd" d="M142.936 28.8005V23.5866C142.936 20.387 145.53 17.7933 148.729 17.7933C151.929 17.7933 154.522 20.3871 154.522 23.5866V56.0291H160.316V23.5866C160.316 17.1875 155.128 12 148.729 12C142.33 12 137.143 17.1875 137.143 23.5866V28.8005H134.246V34.0145H137.143V56.0291L142.936 56.0291V34.0145H148.729V28.8005H142.936ZM93.6929 55.16V39.5181C93.6929 36.3186 91.0991 33.7248 87.8996 33.7248C84.7 33.7248 82.1063 36.3186 82.1063 39.5181V55.16L76.313 55.16V39.5181C76.313 33.119 81.5005 27.9315 87.8996 27.9315C94.2987 27.9315 99.4862 33.119 99.4862 39.5181V55.16H93.6929ZM50.2435 42.4149C50.2435 37.6155 54.1341 33.7249 58.9335 33.7249C63.7328 33.7249 67.6234 37.6155 67.6234 42.4149C67.6234 47.2142 63.7328 51.1048 58.9335 51.1048C54.1341 51.1048 50.2435 47.2142 50.2435 42.4149ZM58.9335 27.9316C50.9346 27.9316 44.4502 34.416 44.4502 42.4149C44.4502 50.4137 50.9346 56.8981 58.9335 56.8981C66.9323 56.8981 73.4167 50.4137 73.4167 42.4149C73.4167 34.416 66.9323 27.9316 58.9335 27.9316ZM108.176 42.4149C108.176 37.6155 112.067 33.7249 116.866 33.7249C121.665 33.7249 125.556 37.6155 125.556 42.4149C125.556 47.2142 121.665 51.1048 116.866 51.1048C112.067 51.1048 108.176 47.2142 108.176 42.4149ZM116.866 27.9316C108.867 27.9316 102.383 34.416 102.383 42.4149C102.383 50.4137 108.867 56.8981 116.866 56.8981C124.865 56.8981 131.349 50.4137 131.349 42.4149C131.349 34.416 124.865 27.9316 116.866 27.9316ZM180.013 33.7249C175.214 33.7249 171.323 37.6155 171.323 42.4149C171.323 47.2142 175.214 51.1048 180.013 51.1048C184.812 51.1048 188.703 47.2142 188.703 42.4149C188.703 37.6155 184.812 33.7249 180.013 33.7249ZM165.53 42.4149C165.53 34.416 172.014 27.9316 180.013 27.9316C188.012 27.9316 194.496 34.416 194.496 42.4149C194.496 50.4137 188.012 56.8981 180.013 56.8981C172.014 56.8981 165.53 50.4137 165.53 42.4149ZM203.186 45.3114V28.8005H197.393V45.3114C197.393 51.7105 202.58 56.898 208.979 56.898C212.44 56.898 215.546 55.3809 217.669 52.9754C219.792 55.3809 222.899 56.898 226.359 56.898C232.758 56.898 237.946 51.7105 237.946 45.3114V28.8005H232.152V45.3114C232.152 48.511 229.559 51.1047 226.359 51.1047C223.16 51.1047 220.566 48.511 220.566 45.3114L220.566 28.8005H214.773V45.3114C214.773 48.511 212.179 51.1047 208.979 51.1047C205.78 51.1047 203.186 48.511 203.186 45.3114ZM35.7598 39.5182V56.0291H41.5531V39.5182C41.5531 33.1191 36.3657 27.9316 29.9665 27.9316C26.5058 27.9316 23.3994 29.4488 21.2763 31.8544C19.1532 29.4488 16.0469 27.9316 12.5861 27.9316C6.18701 27.9316 0.999514 33.1191 0.999513 39.5182L0.999512 56.0291L6.79281 56.0291L6.79281 39.5182C6.79281 36.3186 9.38656 33.7249 12.5861 33.7249C15.7857 33.7249 18.3794 36.3186 18.3794 39.5182L18.3794 56.0291L18.3799 56.0291L24.1727 56.0291L24.1732 56.0291L24.1732 39.5182C24.1732 36.3186 26.767 33.7249 29.9665 33.7249C33.1661 33.7249 35.7598 36.3186 35.7598 39.5182ZM396.103 42.4149C396.103 48.814 390.916 54.0015 384.517 54.0015C378.117 54.0015 372.93 48.814 372.93 42.4149C372.93 36.0158 378.117 30.8283 384.517 30.8283C390.916 30.8283 396.103 36.0158 396.103 42.4149ZM399 42.4149C399 50.4138 392.515 56.8982 384.517 56.8982C376.518 56.8982 370.033 50.4138 370.033 42.4149C370.033 34.416 376.518 27.9317 384.517 27.9317C392.515 27.9317 399 34.416 399 42.4149ZM302.252 45.3115V28.8006H299.355V45.3115C299.355 51.7106 304.543 56.8981 310.942 56.8981C317.341 56.8981 322.528 51.7106 322.528 45.3115V28.8006H319.632V45.3115C319.632 50.1108 315.741 54.0014 310.942 54.0014C306.143 54.0014 302.252 50.1108 302.252 45.3115ZM350.625 56.0291V50.777C348.42 54.4003 344.803 56.8982 340.487 56.8982C333.288 56.8982 327.452 51.6842 327.452 42.4149C327.452 33.1456 333.288 27.9317 340.487 27.9317C344.803 27.9317 348.42 30.4296 350.625 34.0529V18.952H353.522V56.0291H350.625ZM340.487 54.0015C345.794 54.0015 350.602 49.1328 350.625 42.4646V42.3653C350.602 35.697 345.794 30.8283 340.487 30.8283C337.603 30.8283 335.125 31.8612 333.362 33.7012C331.601 35.5392 330.349 38.4004 330.349 42.4149C330.349 46.4294 331.601 49.2907 333.362 51.1286C335.125 52.9686 337.603 54.0015 340.487 54.0015ZM284.872 22.1381C283.423 22.1381 283.423 22.1384 283.423 22.1384V28.8003H280.527V31.4073H283.423V49.077C283.423 50.6479 283.688 52.4668 284.95 53.8797C286.238 55.3219 288.275 56.0289 291.099 56.0289H294.431V53.1323H291.099C288.709 53.1323 287.633 52.5358 287.111 51.9504C286.562 51.3357 286.32 50.4027 286.32 49.077V31.4073H294.43V28.8003H286.32V22.1384C286.32 22.1384 286.32 22.1381 284.872 22.1381ZM365.109 20.1106C365.109 21.2305 364.201 22.1383 363.081 22.1383C361.961 22.1383 361.054 21.2305 361.054 20.1106C361.054 18.9908 361.961 18.083 363.081 18.083C364.201 18.083 365.109 18.9908 365.109 20.1106ZM361.633 56.0291V28.8006H364.53V56.0291H361.633ZM248.953 53.1324C248.953 54.8921 247.527 56.3187 245.767 56.3187C244.007 56.3187 242.581 54.8921 242.581 53.1324C242.581 51.3726 244.007 49.946 245.767 49.946C247.527 49.946 248.953 51.3726 248.953 53.1324ZM259.201 32.2782C257.781 33.1533 257.064 34.3199 257.064 35.7524C257.064 37.0895 257.773 38.1302 259.337 39.0194C260.951 39.9372 263.275 40.557 265.98 40.9841C268.779 41.426 271.524 42.1097 273.603 43.2919C275.733 44.5028 277.341 46.3588 277.341 49.077C277.341 51.7811 275.7 53.7865 273.495 55.0425C271.311 56.2866 268.438 56.8979 265.464 56.8979C262.461 56.8979 259.606 56.2056 257.453 55.022C255.361 53.8719 253.588 52.0397 253.588 49.6563H256.485C256.485 50.4725 257.126 51.5369 258.849 52.4836C260.51 53.3967 262.869 54.0013 265.464 54.0013C268.09 54.0013 270.431 53.4539 272.061 52.5255C273.67 51.6091 274.444 50.4282 274.444 49.077C274.444 47.7399 273.735 46.6991 272.171 45.81C270.557 44.8922 268.233 44.2724 265.528 43.8453C262.729 43.4033 259.984 42.7197 257.905 41.5374C255.776 40.3265 254.168 38.4706 254.168 35.7524C254.168 33.1295 255.576 31.1098 257.681 29.8124C259.74 28.5428 262.491 27.9314 265.465 27.9314C268.47 27.9314 271.2 28.6249 273.229 29.8319C275.235 31.0255 276.472 32.8707 276.472 35.173H273.575C273.575 34.2758 273.266 33.2244 271.748 32.3213C270.252 31.4315 268.058 30.8281 265.465 30.8281C262.839 30.8281 260.665 31.3754 259.201 32.2782Z" fill="#29303D"/>
</svg>
